<svg id="Layer_1" enable-background="new 0 0 24 24" viewBox="0 0 24 24" xmlns="http://www.w3.org/2000/svg"><g fill="#fff"><path d="m16.2 22h-8.4c-1.8 0-2.8 0-3.6-.4s-1.4-1-1.7-1.7c-.5-.9-.5-1.9-.5-3.7v-8.4c0-1.8 0-2.8.4-3.6s1-1.4 1.7-1.7c.9-.5 1.9-.5 3.7-.5h8.2c.6 0 1 .4 1 1s-.4 1-1 1h-8.2c-1.5 0-2.3 0-2.7.2s-.7.5-.9.9-.2 1.2-.2 2.7v8.4c0 1.5 0 2.3.2 2.7s.5.7.9.9 1.2.2 2.7.2h8.4c1.5 0 2.3 0 2.7-.2s.7-.5.9-.9.2-1.2.2-2.7v-4.2c0-.6.4-1 1-1s1 .4 1 1v4.2c0 1.8 0 2.8-.4 3.6s-1 1.4-1.7 1.7c-.9.5-1.9.5-3.7.5zm-4.2-7c-.3 0-.5-.1-.7-.3l-3-3c-.4-.4-.4-1 0-1.4s1-.4 1.4 0l2.3 2.3 9.3-9.3c.4-.4 1-.4 1.4 0s.4 1 0 1.4l-10 10c-.2.2-.4.3-.7.3z"/></g></svg>
