<svg width="1005" height="133" viewBox="0 0 1005 133" fill="none" xmlns="http://www.w3.org/2000/svg">
<path d="M225.299 92.1036C217.83 92.1036 209.415 89.8344 204.12 85.6743C202.324 84.2561 201 82.3651 201 80.3796C201 77.5432 202.796 75.6522 205.633 75.6522C206.673 75.6522 207.524 75.9359 208.469 76.5032C213.386 79.6233 216.79 82.3651 225.393 82.3651C234.186 82.3651 237.685 78.7723 237.685 74.7068C237.685 70.263 234.092 67.8993 223.124 64.9683C206.578 60.5245 201.567 55.2299 201.567 46.0587C201.567 34.902 211.211 28.9455 225.772 28.9455C229.081 28.9455 233.525 29.5128 237.496 30.5528C241.75 31.7819 247.045 34.4293 247.045 38.0221C247.045 40.4804 245.532 43.0332 242.507 43.0332C241.75 43.0332 241.088 42.9386 240.332 42.5604C236.077 40.6695 231.728 38.6839 225.961 38.6839C217.83 38.6839 212.819 40.8586 212.819 45.6805C212.819 50.2188 216.506 51.7316 227.473 54.9462C240.048 58.6336 248.936 62.2264 248.936 73.9504C248.936 84.6343 240.899 92.1036 225.299 92.1036Z" fill="white"/>
<path d="M307.934 40.5749H292.239V86.0525C292.239 89.1726 289.686 91.7254 286.566 91.7254C283.446 91.7254 281.082 89.1726 281.082 86.0525V40.5749H265.293C262.362 40.5749 259.998 38.2112 259.998 35.3748C259.998 32.4438 262.267 30.0801 265.293 30.0801H307.934C310.865 30.0801 313.229 32.4438 313.229 35.3748C313.229 38.2112 310.959 40.5749 307.934 40.5749Z" fill="white"/>
<path d="M367.877 91.0636H333.556C330.436 91.0636 327.883 88.6053 327.883 85.4852V35.5639C327.883 32.4438 330.436 29.9855 333.556 29.9855H366.554C369.485 29.9855 371.848 32.1601 371.848 35.0911C371.848 38.0221 369.485 40.2913 366.554 40.2913H339.04V54.8517H354.168C357.004 54.8517 359.368 57.1208 359.368 60.0518C359.368 62.9828 357.004 65.1574 354.168 65.1574H339.04V80.5687H367.877C370.808 80.5687 373.172 82.8379 373.172 85.7689C373.267 88.7944 370.808 91.0636 367.877 91.0636Z" fill="white"/>
<path d="M394.445 91.0635C391.325 91.0635 388.772 88.5107 388.772 85.3907V34.9966C388.772 31.8765 391.325 29.3237 394.445 29.3237C397.565 29.3237 399.929 31.8765 399.929 34.9966V80.5687H426.686C429.523 80.5687 431.886 82.8379 431.886 85.7689C431.886 88.6998 429.523 90.969 426.686 91.0635H394.445Z" fill="white"/>
<path d="M452.592 91.0635C449.472 91.0635 446.919 88.5107 446.919 85.3907V34.9966C446.919 31.8765 449.472 29.3237 452.592 29.3237C455.712 29.3237 458.076 31.8765 458.076 34.9966V80.5687H484.833C487.67 80.5687 490.033 82.8379 490.033 85.7689C490.033 88.6998 487.67 90.969 484.833 91.0635H452.592Z" fill="white"/>
<path d="M543.737 77.5432H516.601L511.401 88.6998C510.361 90.4963 509.132 91.7254 506.768 91.7254C503.459 91.7254 501.474 89.1726 501.474 86.5252C501.474 85.7689 501.663 85.107 502.041 84.3506L525.394 32.1601C526.245 30.3637 527.758 29.2291 530.122 29.2291C532.485 29.2291 534.093 30.2692 534.849 32.1601L558.297 84.2561C558.675 85.0125 558.864 85.7689 558.864 86.4307C558.864 89.078 556.879 91.6308 553.57 91.6308C551.206 91.6308 549.882 90.4963 548.937 88.6053L543.737 77.5432ZM530.122 44.4514L520.572 67.7102H539.671L530.122 44.4514Z" fill="white"/>
<path d="M625.615 86.1471C625.615 88.9835 623.441 91.7254 620.037 91.7254C617.579 91.7254 615.971 90.5908 615.12 88.6999L604.436 66.5756H585.905V86.0525C585.905 89.1726 583.447 91.6309 580.327 91.6309C577.207 91.6309 574.748 89.1726 574.748 86.0525V35.5639C574.748 32.4438 577.207 29.9855 580.327 29.9855H603.869C619.091 29.9855 625.615 37.4548 625.615 48.3279C625.615 55.5135 622.495 61.5646 615.499 64.5901L624.953 83.7834C625.332 84.5398 625.615 85.3907 625.615 86.1471ZM605.477 40.2913H585.905V57.0263H605.382C611.528 57.0263 614.269 52.5825 614.269 48.4224C614.364 44.3568 611.528 40.2913 605.477 40.2913Z" fill="white"/>
<path d="M720.163 39.724C720.542 40.2913 720.92 40.8585 720.92 41.5204C720.92 42.9386 719.785 43.9786 718.367 43.9786C717.516 43.9786 716.949 43.695 716.476 42.9386C711.938 37.1712 706.359 33.1056 696.81 33.1056C680.926 33.1056 671.755 45.775 671.755 59.6736C671.755 73.5722 680.926 86.2416 696.81 86.2416C706.454 86.2416 711.938 82.176 716.476 76.4086C717.043 75.6522 717.611 75.3686 718.367 75.3686C719.785 75.3686 720.92 76.4086 720.92 77.8268C720.92 78.5832 720.542 79.1505 720.163 79.6232C715.247 86.1471 707.588 91.1581 696.715 91.1581C678.184 91.1581 666.176 76.9759 666.176 59.5791C666.176 42.1822 678.184 28 696.715 28C707.683 28.1891 715.247 33.2002 720.163 39.724Z" fill="white"/>
<path d="M759.023 63.5501V88.3217C759.023 89.8344 757.793 91.0636 756.281 91.0636C754.768 91.0636 753.539 89.8344 753.539 88.3217V63.5501L731.982 32.6329C731.604 32.0656 731.414 31.4983 731.414 31.1201C731.414 29.6073 732.549 28.6619 733.873 28.6619C734.818 28.6619 735.575 29.0401 736.236 29.9855L756.186 58.539L776.136 29.9855C776.798 29.0401 777.648 28.6619 778.499 28.6619C779.918 28.6619 780.958 29.6073 780.958 31.1201C780.958 31.5928 780.769 32.1601 780.39 32.6329L759.023 63.5501Z" fill="white"/>
<path d="M821.519 90.3072H798.544C797.031 90.3072 795.802 88.9835 795.802 87.5653V32.0656C795.802 30.5528 796.842 29.3237 798.544 29.3237H819.344C829.839 29.3237 837.403 35.0912 837.403 44.3569C837.403 50.597 834.756 54.7571 827.948 57.5936C835.701 58.9173 842.225 64.212 842.225 73.6668C842.225 82.1761 835.323 90.3072 821.519 90.3072ZM819.439 34.0511H801.286V55.7972H819.912C827.57 55.7972 831.919 50.6916 831.919 44.9242C831.825 37.8331 827.003 34.0511 819.439 34.0511ZM801.286 60.5246V85.5798H821.897C831.825 85.5798 836.741 80.0015 836.741 73.0049C836.741 65.1574 830.974 60.5246 821.613 60.5246H801.286Z" fill="white"/>
<path d="M866.051 85.3907H898.67C899.994 85.3907 901.128 86.5253 901.128 87.849C901.128 89.2672 899.994 90.3072 898.67 90.3072H863.309C861.796 90.3072 860.567 89.0781 860.567 87.5653V32.0656C860.567 30.5528 861.796 29.3237 863.309 29.3237H898.575C899.994 29.3237 901.034 30.4583 901.034 31.782C901.034 33.2002 899.899 34.2402 898.575 34.2402H866.051V56.3645H884.961C886.379 56.3645 887.419 57.499 887.419 58.8227C887.419 60.2409 886.284 61.281 884.961 61.281H866.051V85.3907Z" fill="white"/>
<path d="M953.413 62.6992L965.326 87.0926C965.515 87.4708 965.705 87.9435 965.705 88.4163C965.705 89.7399 964.57 91.0636 963.057 91.0636C961.639 91.0636 961.072 90.4963 960.504 89.5508L947.551 63.2665H924.954V88.3217C924.954 89.8345 923.82 91.0636 922.212 91.0636C920.7 91.0636 919.471 89.8345 919.471 88.3217V32.0656C919.471 30.5528 920.794 29.3237 922.212 29.3237H948.497C960.599 29.3237 967.312 36.6039 967.312 46.2478C967.217 54.5681 962.395 61.0919 953.413 62.6992ZM949.537 34.2402H924.86V58.2554H949.537C957.101 58.2554 961.734 53.2444 961.734 46.2478C961.734 39.2513 957.195 34.2402 949.537 34.2402Z" fill="white"/>
<path d="M993 53C985.959 53 981 47.7 981 41C981 34.3 986.058 29 993 29C1000.04 29 1005 34.3 1005 41C1005 47.6 1000.04 53 993 53ZM993 31C986.752 31 983.083 35.6 983.083 41C983.083 46.4 986.752 51 993 51C999.248 51 1002.92 46.4 1002.92 41C1002.92 35.6 999.248 31 993 31ZM995.678 41.9L997.959 45.6C998.058 45.7 998.058 45.9 998.058 46.2C998.058 46.6 997.562 47.1 996.967 47.1C996.471 47.1 996.174 46.8 995.975 46.4L993.496 42.2H991.314V46.2C991.314 46.6 990.917 47.1 990.322 47.1C989.727 47.1 989.231 46.6 989.231 46.2V35.4C989.231 34.8 989.727 34.3 990.322 34.3H993.397C996.273 34.3 997.859 35.9 997.859 38.2C997.859 40 997.165 41.3 995.678 41.9ZM991.314 36.3V40.3H993.595C994.983 40.3 995.678 39.4 995.678 38.3C995.678 37.1 994.983 36.3 993.595 36.3H991.314Z" fill="white"/>
<path d="M62.0376 0.91334L42.3202 22.1888C40.1712 24.499 42.8575 28.0449 45.6512 26.6481L63.8106 17.6221C64.5628 17.246 65.4761 17.246 66.2283 17.5684L78.9076 23.3708C81.7013 24.6602 84.2264 21.2217 82.1849 18.9115L66.2283 0.967067C65.691 0.322356 64.8851 0 64.1329 0C63.3808 0 62.6286 0.322355 62.0376 0.91334Z" fill="white"/>
<path d="M64.3479 74.6253L52.4744 129.372C51.9372 131.897 54.6235 133.885 56.88 132.596L109.639 102.831C112.647 101.112 110.875 96.5455 107.49 97.2976L76.7048 104.336C74.9319 104.712 73.2664 103.53 73.0515 101.703L70.2577 74.8939C70.0965 73.121 68.6459 72.2076 67.2491 72.2076C65.9596 72.2614 64.6702 73.0673 64.3479 74.6253Z" fill="white"/>
<path d="M47.3167 37.4469L1.38106 46.0431C-0.0695381 46.3117 -0.499346 48.1921 0.682625 49.0517L47.4242 82.9528C48.9285 84.0273 50.8626 82.2543 49.8418 80.6963L29.9632 49.3741C29.3723 48.4607 29.8021 47.225 30.8229 46.8489L48.2301 40.7242C50.0567 40.0795 49.4658 37.4469 47.6928 37.4469C47.5854 37.3932 47.4242 37.4469 47.3167 37.4469Z" fill="white"/>
<path d="M100.344 22.1888L116.462 30.2477C117.268 30.6775 117.644 31.6446 117.268 32.4504L111.68 46.0968C111.036 47.7086 112.916 49.2129 114.313 48.1384L138.06 30.7312C139.242 29.8716 138.866 27.9912 137.469 27.6688L101.526 18.9115C101.365 18.8578 101.204 18.8578 101.043 18.8578C99.3772 18.8578 98.625 21.3292 100.344 22.1888Z" fill="white"/>
<path d="M133.332 59.9581L134.353 74.7865C134.46 76.452 132.848 77.6877 131.29 77.1504L110.337 70.2735C107.758 69.4139 106.039 72.8523 108.242 74.4104L149.02 103.422C150.9 104.766 153.372 102.885 152.566 100.736L137.845 58.991C137.469 57.9165 136.555 57.433 135.696 57.433C134.46 57.433 133.224 58.3463 133.332 59.9581Z" fill="white"/>
</svg>
