<svg height="512pt" viewBox="0 0 512 512" width="512pt" xmlns="http://www.w3.org/2000/svg"><path d="m512 256c0 141.503906-114.515625 256-256 256-141.503906 0-256-114.515625-256-256 0-141.503906 114.515625-256 256-256 53.320312 0 104.148438 16.191406 146.878906 46.25v-23.878906c0-11.046875 8.953125-20 20-20 11.042969 0 20 8.953125 20 20v66.75c0 9.878906-7.25 18.382812-17.199218 19.78125-2.523438.355468 3.164062.183594-69.554688.21875-11.046875 0-20-8.953125-20-20s8.953125-20 20-20h8.34375c-141.597656-82.5-324.46875 18.585937-324.46875 186.878906 0 119.394531 96.621094 216 216 216 119.394531 0 216-96.621094 216-216 0-11.046875 8.953125-20 20-20s20 8.953125 20 20zm-255.242188-138c-11.046874 0-20 8.953125-20 20v116.859375c0 5.300781 2.105469 10.390625 5.855469 14.140625l79.808594 79.808594c7.8125 7.808594 20.476563 7.8125 28.285156 0 7.8125-7.8125 7.8125-20.472656 0-28.285156l-73.949219-73.949219v-108.574219c0-11.046875-8.953124-20-20-20zm0 0" fill="#fff"/></svg>
