<?xml version="1.0" encoding="iso-8859-1"?>
<!-- Generator: Adobe Illustrator 19.0.0, SVG Export Plug-In . SVG Version: 6.00 Build 0)  -->
<svg version="1.1" id="Capa_1" xmlns="http://www.w3.org/2000/svg" xmlns:xlink="http://www.w3.org/1999/xlink" x="0px" y="0px"
   viewBox="0 0 512.002 512.002" style="enable-background:new 0 0 512.002 512.002;" xml:space="preserve">
<g>
  <g>
    <path fill="#fff" d="M509.5,2.502c-3.328-3.337-8.738-3.337-12.066,0L249.967,249.969c-3.337,3.336-3.337,8.73,0,12.066
      c1.664,1.664,3.849,2.5,6.033,2.5c2.185,0,4.369-0.836,6.033-2.5L509.5,14.569C512.836,11.232,512.836,5.839,509.5,2.502z"/>
  </g>
</g>
<g>
  <g>
    <path fill="#fff" d="M249.967,262.035c3.336,3.337,8.738,3.337,12.066,0L437.018,87.051c1.604-1.596,2.5-3.763,2.5-6.033
      c0-2.27-0.896-4.429-2.5-6.033C388.668,26.635,324.378,0.002,256,0.002c-141.158,0-256,114.842-256,256s114.842,256,256,256
      c32.307,0,63.795-5.939,93.611-17.664c4.386-1.724,6.545-6.673,4.821-11.068c-1.732-4.378-6.682-6.528-11.068-4.813
      c-27.81,10.94-57.207,16.478-87.364,16.478c-131.746,0-238.933-107.187-238.933-238.933S124.254,17.069,256,17.069
      c60.971,0,118.451,22.682,162.816,64.06L249.967,249.969C246.63,253.306,246.63,258.699,249.967,262.035z"/>
  </g>
</g>
<g>
  <g>
    <path fill="#fff" d="M249.967,262.035c3.328,3.337,8.738,3.337,12.066,0l138.718-138.718c3.337-3.336,3.337-8.73,0-12.066
      C362.027,72.527,310.622,51.202,256,51.202c-112.93,0-204.8,91.878-204.8,204.8s91.87,204.8,204.8,204.8
      c11.972,0,23.953-1.041,35.627-3.106c4.642-0.819,7.74-5.239,6.921-9.882c-0.819-4.642-5.265-7.791-9.89-6.921
      c-10.692,1.886-21.683,2.842-32.657,2.842c-103.518,0-187.733-84.215-187.733-187.733S152.482,68.269,256,68.269
      c47.215,0,91.819,17.391,126.515,49.152L249.967,249.969C246.63,253.306,246.63,258.699,249.967,262.035z"/>
  </g>
</g>
<g>
  <g>
    <path fill="#fff" d="M328.38,183.631c-19.362-19.362-45.065-30.029-72.38-30.029c-56.465,0-102.4,45.935-102.4,102.4
      c0,33.254,16.299,64.572,43.597,83.78c1.485,1.058,3.2,1.562,4.898,1.562c2.679,0,5.325-1.254,6.98-3.618
      c2.714-3.857,1.792-9.182-2.065-11.887c-22.758-16.017-36.343-42.129-36.343-69.837c0-47.053,38.281-85.333,85.333-85.333
      c19.891,0,38.767,6.793,53.99,19.285l-60.015,60.015c-3.337,3.336-3.337,8.73,0,12.066c3.328,3.337,8.738,3.337,12.066,0
      l66.338-66.338C331.708,192.361,331.708,186.967,328.38,183.631z"/>
  </g>
</g>
<g>
  <g>
    <path fill="#fff" d="M223.881,388.73c-61.483-14.882-104.414-69.461-104.414-132.727c0-13.961,2.133-27.776,6.34-41.071
      c1.425-4.489-1.067-9.293-5.564-10.709c-4.497-1.442-9.284,1.067-10.709,5.555c-4.736,14.967-7.134,30.515-7.134,46.225
      c0,71.168,48.299,132.565,117.461,149.308c0.674,0.162,1.348,0.239,2.014,0.239c3.849,0,7.347-2.611,8.294-6.519
      C231.27,394.447,228.463,389.839,223.881,388.73z"/>
  </g>
</g>
<g>
  <g>
    <path fill="#fff" d="M364.561,147.433c-29.039-29.039-67.593-45.03-108.561-45.03c-50.833,0-98.33,25.19-127.053,67.388
      c-2.654,3.891-1.647,9.199,2.253,11.861c1.476,0.998,3.14,1.476,4.796,1.476c2.731,0,5.419-1.306,7.066-3.738
      c25.54-37.521,67.755-59.921,112.939-59.921c36.412,0,70.682,14.217,96.495,40.03c3.328,3.337,8.738,3.337,12.066,0
      C367.898,156.162,367.898,150.769,364.561,147.433z"/>
  </g>
</g>
<g>
  <g>
    <path fill="#fff" d="M384,281.602c-18.825,0-34.133,15.309-34.133,34.133c0,18.825,15.309,34.133,34.133,34.133
      c18.825,0,34.133-15.309,34.133-34.133C418.133,296.911,402.825,281.602,384,281.602z M384,332.802
      c-9.412,0-17.067-7.654-17.067-17.067c0-9.412,7.654-17.067,17.067-17.067c9.412,0,17.067,7.654,17.067,17.067
      C401.067,325.148,393.412,332.802,384,332.802z"/>
  </g>
</g>
<g>
  <g>
    <path fill="#fff" d="M477.867,162.135c-18.825,0-34.133,15.309-34.133,34.133s15.309,34.133,34.133,34.133S512,215.093,512,196.269
      S496.691,162.135,477.867,162.135z M477.867,213.336c-9.412,0-17.067-7.654-17.067-17.067c0-9.412,7.654-17.067,17.067-17.067
      s17.067,7.654,17.067,17.067C494.933,205.681,487.279,213.336,477.867,213.336z"/>
  </g>
</g>
<g>
  <g>
    <path fill="#fff" d="M435.2,443.735c-18.825,0-34.133,15.309-34.133,34.133s15.309,34.133,34.133,34.133c18.825,0,34.133-15.309,34.133-34.133
      S454.025,443.735,435.2,443.735z M435.2,494.935c-9.412,0-17.067-7.654-17.067-17.067s7.654-17.067,17.067-17.067
      s17.067,7.654,17.067,17.067S444.612,494.935,435.2,494.935z"/>
  </g>
</g>
<g>
  <g>
    <path fill="#fff" d="M256,204.802c-28.228,0-51.2,22.963-51.2,51.2c0,28.237,22.972,51.2,51.2,51.2c4.71,0,8.533-3.814,8.533-8.533
      s-3.823-8.533-8.533-8.533c-18.825,0-34.133-15.309-34.133-34.133c0-18.825,15.309-34.133,34.133-34.133
      c18.825,0,34.133,15.309,34.133,34.133c0,4.719,3.823,8.533,8.533,8.533s8.533-3.814,8.533-8.533
      C307.2,227.765,284.228,204.802,256,204.802z"/>
  </g>
</g>
<g>
  <g>
    <path fill="#fff" d="M123.733,162.135c-16.469,0-29.867,13.397-29.867,29.867c0,16.469,13.397,29.867,29.867,29.867
      s29.867-13.397,29.867-29.867C153.6,175.533,140.203,162.135,123.733,162.135z M123.733,204.802c-7.057,0-12.8-5.743-12.8-12.8
      s5.743-12.8,12.8-12.8s12.8,5.743,12.8,12.8S130.79,204.802,123.733,204.802z"/>
  </g>
</g>
<g>
</g>
<g>
</g>
<g>
</g>
<g>
</g>
<g>
</g>
<g>
</g>
<g>
</g>
<g>
</g>
<g>
</g>
<g>
</g>
<g>
</g>
<g>
</g>
<g>
</g>
<g>
</g>
<g>
</g>
</svg>
