<svg height="512pt" viewBox="0 0 512 512" width="512pt" xmlns="http://www.w3.org/2000/svg"><path fill="#fff" d="m302 120h68.785156l-94.390625 94.394531 21.210938 21.210938 94.394531-94.390625v68.785156h30v-120h-120zm0 0"/><path fill="#fff" d="m452 0v30h30v30h30v-60zm0 0"/><path fill="#fff" d="m482 390h-30v30h60v-60h-30zm0 0"/><path fill="#fff" d="m482 90h30v60h-30zm0 0"/><path fill="#fff" d="m482 180h30v60h-30zm0 0"/><path fill="#fff" d="m482 270h30v60h-30zm0 0"/><path fill="#fff" d="m122 30h30v-30h-60v60h30zm0 0"/><path fill="#fff" d="m92 90h30v60h-30zm0 0"/><path fill="#fff" d="m92 180h30v60h-30zm0 0"/><path fill="#fff" d="m182 0h60v30h-60zm0 0"/><path fill="#fff" d="m272 0h60v30h-60zm0 0"/><path fill="#fff" d="m362 0h60v30h-60zm0 0"/><path fill="#fff" d="m272 390h60v30h-60zm0 0"/><path fill="#fff" d="m362 390h60v30h-60zm0 0"/><path fill="#fff" d="m0 512h240v-240h-240zm30-210h180v180h-180zm0 0"/></svg>
