<svg id="Layer" height="512" viewBox="0 0 24 24" width="512" xmlns="http://www.w3.org/2000/svg"><path fill="#fff" id="shield-check" d="m12 22.75a.74.74 0 0 1 -.237-.039c-1.589-.529-9.513-3.588-9.513-11.822v-5.889a.749.749 0 0 1 .6-.735 29.063 29.063 0 0 0 8.8-2.921.819.819 0 0 1 .7-.014 28.345 28.345 0 0 0 8.792 2.935.749.749 0 0 1 .6.735v5.889c0 8.234-7.924 11.293-9.513 11.822a.74.74 0 0 1 -.229.039zm-8.25-17.138v5.277c0 6.864 6.418 9.66 8.25 10.317 1.832-.657 8.25-3.453 8.25-10.317v-5.277a28.925 28.925 0 0 1 -8.235-2.774 29.308 29.308 0 0 1 -8.265 2.774zm7.792 8.918 4-4a.75.75 0 0 0 -1.061-1.06l-3.469 3.469-1.47-1.469a.75.75 0 0 0 -1.061 1.06l2 2a.75.75 0 0 0 1.061 0z" /></svg>
